<?xml version="1.0" encoding="UTF-8" standalone="no"?>
<svg
   width="96"
   height="96"
   viewBox="0 0 24 24"
   version="1.1"
   id="svg1"
   sodipodi:docname="expand.svg"
   inkscape:version="1.4 (e7c3feb100, 2024-10-09)"
   xmlns:inkscape="http://www.inkscape.org/namespaces/inkscape"
   xmlns:sodipodi="http://sodipodi.sourceforge.net/DTD/sodipodi-0.dtd"
   xmlns="http://www.w3.org/2000/svg"
   xmlns:svg="http://www.w3.org/2000/svg">
  <defs
     id="defs1" />
  <sodipodi:namedview
     id="namedview1"
     pagecolor="#505050"
     bordercolor="#eeeeee"
     borderopacity="1"
     inkscape:showpageshadow="0"
     inkscape:pageopacity="0"
     inkscape:pagecheckerboard="0"
     inkscape:deskcolor="#505050"
     showgrid="false"
     inkscape:zoom="4.3973203"
     inkscape:cx="47.983769"
     inkscape:cy="48.097474"
     inkscape:window-width="1352"
     inkscape:window-height="768"
     inkscape:window-x="0"
     inkscape:window-y="0"
     inkscape:window-maximized="0"
     inkscape:current-layer="svg1" />
  <path
     fill="#7748db"
     fill-rule="evenodd"
     d="M 24,12 C 24,18.6276 18.6276,24 12,24 5.3724002,24 3.9e-7,18.6276 3.9e-7,12 3.9e-7,5.3724002 5.3724002,3.9e-7 12,3.9e-7 18.6276,3.9e-7 24,5.3724002 24,12 M 8.0484001,9.3516001 A 1.2,1.2 0 0 0 6.3516002,11.0484 l 4.7999998,4.8 a 1.2,1.2 0 0 0 1.6968,0 l 4.799999,-4.8 A 1.2,1.2 0 0 0 15.9516,9.3516001 L 12,13.3032 Z"
     clip-rule="evenodd"
     id="path1"
     style="stroke-width:1.2" />
</svg>
